<svg xmlns="http://www.w3.org/2000/svg" width="200pt" height="200pt" version="1.1" viewBox="180 180 402 402">
 <g fill="#12b0fb">
  <path d="m555.96 553.59h-359.92c-2.6133 0-4.7344-2.1211-4.7344-4.7344v-14.207c0-2.6133 2.1211-4.7344 4.7344-4.7344h359.92c2.6133 0 4.7344 2.1211 4.7344 4.7344v14.207c0.003907 2.6133-2.1172 4.7344-4.7344 4.7344z"/>
  <path d="m257.61 387.84v108.92c0 5.2344-4.2383 9.4727-9.4727 9.4727h-28.414c-5.2344 0-9.4727-4.2383-9.4727-9.4727v-108.92c0-5.2344 4.2383-9.4727 9.4727-9.4727h28.414c5.2344 0.003906 9.4727 4.2422 9.4727 9.4727z"/>
  <path d="m352.32 302.6v194.17c0 5.2344-4.2383 9.4727-9.4727 9.4727h-28.414c-5.2344 0-9.4727-4.2383-9.4727-9.4727v-194.17c0-5.2344 4.2383-9.4727 9.4727-9.4727h28.414c5.2305 0 9.4727 4.2383 9.4727 9.4727z"/>
  <path d="m447.04 349.95v146.81c0 5.2344-4.2383 9.4727-9.4727 9.4727h-28.414c-5.2344 0-9.4727-4.2383-9.4727-9.4727v-146.81c0-5.2344 4.2383-9.4727 9.4727-9.4727h28.414c5.2344 0.003906 9.4727 4.2422 9.4727 9.4727z"/>
  <path d="m541.75 302.6v194.17c0 5.2344-4.2383 9.4727-9.4727 9.4727h-28.414c-5.2344 0-9.4727-4.2383-9.4727-9.4727v-194.17c0-5.2344 4.2383-9.4727 9.4727-9.4727h28.414c5.2344 0 9.4727 4.2383 9.4727 9.4727z"/>
  <path d="m518.07 198.41c-13.074 0-23.68 10.602-23.68 23.68 0 2.1211 0.37109 4.1406 0.89062 6.1016l-53.391 26.695c-4.332-5.5156-10.98-9.1211-18.535-9.1211s-14.203 3.6055-18.539 9.1133l-53.391-26.695c0.52344-1.957 0.89453-3.9727 0.89453-6.0977 0-13.074-10.602-23.68-23.68-23.68-13.074 0-23.68 10.602-23.68 23.68 0 4.375 1.2695 8.4219 3.3398 11.938l-60.355 54.316c-3.9336-2.9062-8.75-4.6875-14.023-4.6875-13.074 0-23.68 10.602-23.68 23.68 0 13.074 10.602 23.68 23.68 23.68 13.074 0 23.68-10.602 23.68-23.68 0-4.375-1.2695-8.4219-3.3398-11.938l60.352-54.32c3.9375 2.9102 8.7617 4.6914 14.027 4.6914 7.5547 0 14.207-3.6055 18.539-9.1133l53.387 26.695c-0.51953 1.957-0.89062 3.9766-0.89062 6.0977 0 13.074 10.602 23.68 23.68 23.68 13.074 0 23.68-10.602 23.68-23.68 0-2.1211-0.37109-4.1406-0.89062-6.1016l53.387-26.695c4.3359 5.5156 10.988 9.1172 18.539 9.1172 13.074 0 23.68-10.602 23.68-23.68 0-13.074-10.602-23.676-23.68-23.676zm-284.15 118.39c-5.2344 0-9.4727-4.2383-9.4727-9.4727s4.2383-9.4727 9.4727-9.4727 9.4727 4.2383 9.4727 9.4727-4.2383 9.4727-9.4727 9.4727zm94.719-85.246c-5.2344 0-9.4727-4.2383-9.4727-9.4727 0-5.2344 4.2383-9.4727 9.4727-9.4727s9.4727 4.2383 9.4727 9.4727c-0.003907 5.2344-4.2422 9.4727-9.4727 9.4727zm94.715 47.359c-5.2344 0-9.4727-4.2383-9.4727-9.4727 0-5.2344 4.2383-9.4727 9.4727-9.4727s9.4727 4.2383 9.4727 9.4727c0 5.2344-4.2383 9.4727-9.4727 9.4727zm94.715-47.359c-5.2344 0-9.4727-4.2383-9.4727-9.4727 0-5.2344 4.2383-9.4727 9.4727-9.4727s9.4727 4.2383 9.4727 9.4727c0 5.2344-4.2383 9.4727-9.4727 9.4727z"/>
 </g>
</svg>